<svg version="1.1" id="Layer_1" xmlns="http://www.w3.org/2000/svg" xmlns:xlink="http://www.w3.org/1999/xlink" x="0px" y="0px"
	 width="100%" viewBox="0 0 554 554" enable-background="new 0 0 554 554" xml:space="preserve">
<path fill="#FEFFFF" opacity="1.000000" stroke="none" 
	d="
M307.000000,555.000000 
	C204.689621,555.000000 102.879257,555.000000 1.034443,555.000000 
	C1.034443,370.397949 1.034443,185.795868 1.034443,1.096902 
	C185.560379,1.096902 370.120819,1.096902 554.840637,1.096902 
	C554.840637,185.666550 554.840637,370.333252 554.840637,555.000000 
	C472.462494,555.000000 389.981232,555.000000 307.000000,555.000000 
M140.966949,353.023224 
	C140.966949,353.023224 140.940842,353.102905 141.017960,353.710388 
	C141.611923,354.175171 142.205887,354.639954 142.915375,355.089508 
	C142.915375,355.089508 142.899323,355.204926 143.005600,355.805725 
	C143.637466,356.220062 144.269348,356.634399 144.981552,357.025726 
	C144.981552,357.025726 144.944412,357.100555 144.963959,357.883911 
	C146.968567,361.223633 148.973160,364.563354 150.752991,368.543213 
	C143.050049,377.647522 135.347107,386.751831 127.081131,396.143250 
	C125.725937,397.771912 124.370743,399.400604 122.391479,401.250000 
	C122.039589,402.036011 121.687698,402.821991 121.335815,403.608002 
	C121.916611,403.643219 122.497398,403.678406 123.856438,403.814362 
	C125.889870,403.750519 127.923309,403.686707 130.758331,403.828644 
	C153.175552,403.765198 175.592773,403.701782 198.741104,403.825012 
	C199.490555,403.777466 200.239990,403.729889 201.904709,403.902863 
	C223.939713,403.836639 245.974701,403.770447 268.661774,403.880859 
	C269.104309,403.821991 269.546844,403.763123 270.909058,403.902771 
	C280.609283,403.836578 290.309479,403.770416 300.661774,403.880829 
	C301.104309,403.821960 301.546844,403.763123 302.908630,403.902740 
	C309.275604,403.836761 315.642578,403.770782 322.868256,403.882812 
	C324.908722,403.825989 326.949219,403.769165 329.782867,403.911987 
	C335.941742,403.892090 342.100647,403.875702 348.259521,403.851685 
	C368.558411,403.772491 388.857269,403.690521 410.010620,403.767090 
	C409.720062,402.632446 409.429474,401.497772 408.984375,399.748932 
	C398.852783,387.849792 388.721222,375.950653 379.037079,363.494415 
	C383.827972,359.641663 388.933319,356.117737 393.360413,351.884521 
	C431.626984,315.294067 449.484161,270.392883 446.139099,217.628891 
	C442.919891,166.849869 420.963440,125.004593 381.110809,93.649696 
	C329.846710,53.316570 271.588379,41.472435 209.268600,60.308346 
	C151.997253,77.618385 110.244370,113.445412 93.107353,173.048325 
	C81.608154,213.042816 82.930428,252.682526 99.014534,291.421204 
	C107.991707,313.042755 121.272804,331.862366 137.138046,349.512634 
	C137.316605,349.792633 137.568268,349.967468 138.415375,350.324799 
	C138.929749,350.924408 139.444138,351.524048 140.135681,352.548798 
	C140.320511,352.814545 140.571121,352.981659 140.966949,353.023224 
M408.769714,502.859802 
	C408.814972,501.576416 408.860229,500.293030 409.099060,498.088684 
	C409.034271,477.053894 408.969452,456.019104 408.975006,434.397766 
	C408.652222,434.275879 408.329437,434.153992 407.089661,433.845428 
	C403.810272,433.845428 400.530884,433.845428 397.093597,433.845428 
	C397.093597,456.497314 397.093597,478.753326 396.954987,501.770844 
	C397.636292,502.177307 398.317566,502.583740 399.877289,503.210236 
	C402.584991,503.138855 405.292694,503.067474 408.769714,502.859802 
M164.052933,434.615326 
	C153.150360,436.840637 143.084976,440.989655 134.328995,447.943878 
	C119.878998,459.420502 119.276688,475.806427 133.027817,488.100830 
	C136.456085,491.165924 140.407028,493.917480 144.565323,495.850067 
	C167.757294,506.628510 191.678070,507.307861 216.094559,500.490112 
	C218.439590,499.835327 221.305939,499.881470 223.643250,500.572693 
	C232.468719,503.182800 241.330521,504.804932 250.644501,503.751770 
	C250.644501,501.691406 250.644501,499.916107 250.644501,498.352325 
	C243.794281,497.469910 237.179047,496.617767 229.307281,495.603760 
	C233.631027,492.587646 236.770325,490.708221 239.555344,488.401154 
	C251.361404,478.621216 252.968430,463.746521 242.758347,452.326508 
	C238.661484,447.744141 233.307404,443.772858 227.767792,441.085327 
	C207.715714,431.357147 186.459457,430.743164 164.052933,434.615326 
M359.627411,489.112640 
	C336.172821,501.270416 312.451294,501.613586 288.805756,490.025787 
	C279.958649,485.690155 272.957306,479.015991 273.154236,468.166107 
	C273.347565,457.515808 280.653198,451.232086 289.261932,447.119629 
	C312.248535,436.138794 335.705231,435.721069 358.243042,447.886047 
	C365.129456,451.603027 371.444702,451.707672 379.446442,451.815674 
	C373.566406,445.530029 367.270355,441.697754 360.319855,438.977692 
	C343.017334,432.206329 325.078003,431.029694 306.838104,433.589447 
	C292.052246,435.664459 278.391632,440.538208 267.550079,451.318146 
	C257.954742,460.858948 257.116058,473.962830 266.099213,484.012665 
	C270.315002,488.729126 275.719788,492.738464 281.276154,495.825562 
	C292.204834,501.897461 304.430084,503.871582 316.783478,504.589539 
	C333.617493,505.567993 350.054260,503.692688 365.278564,495.880646 
	C369.817261,493.551727 373.813141,490.164856 378.057709,487.262695 
	C377.813873,486.829132 377.570038,486.395538 377.326233,485.961975 
	C371.664581,487.018768 365.439728,484.027863 359.627411,489.112640 
M397.892242,361.736969 
	C395.562256,369.639191 397.622284,376.811127 403.553253,381.445496 
	C409.250549,385.897247 417.043610,386.532684 423.229370,383.049896 
	C429.401062,379.575043 432.902252,372.519501 432.015533,365.344269 
	C431.081818,357.788818 425.084839,351.510162 417.521454,350.169525 
	C409.609222,348.767029 402.672638,352.620514 397.892242,361.736969 
z"/>
<path fill="#12A3D3" opacity="1.000000" stroke="none" 
	d="
M136.974762,349.072266 
	C121.272804,331.862366 107.991707,313.042755 99.014534,291.421204 
	C82.930428,252.682526 81.608154,213.042816 93.107353,173.048325 
	C110.244370,113.445412 151.997253,77.618385 209.268600,60.308346 
	C271.588379,41.472435 329.846710,53.316570 381.110809,93.649696 
	C420.963440,125.004593 442.919891,166.849869 446.139099,217.628891 
	C449.484161,270.392883 431.626984,315.294067 393.360413,351.884521 
	C388.933319,356.117737 383.827972,359.641663 378.486938,363.786865 
	C368.103760,352.816345 358.196167,341.617310 348.463806,330.268036 
	C341.893890,322.606598 335.570892,314.733368 329.428467,306.811157 
	C336.589417,298.796112 344.310211,291.509735 350.190002,282.957642 
	C385.931763,230.971420 362.492432,172.260208 321.965607,145.136459 
	C309.457123,136.764801 295.495056,132.262619 280.748169,128.847290 
	C276.744690,127.805824 272.951447,127.086777 269.010193,126.339676 
	C270.000031,126.109535 270.975891,125.882645 271.951752,125.655762 
	C271.923676,125.532700 271.895630,125.409645 271.867584,125.286591 
	C267.303680,125.286591 262.739807,125.286591 257.161469,125.286591 
	C259.123718,125.887016 260.062775,126.174370 260.301025,126.247269 
	C256.816711,127.127823 252.919037,128.112839 248.725464,129.342621 
	C221.212143,134.111450 199.197525,147.487122 182.740799,169.459015 
	C165.053970,193.073242 158.547806,219.764465 165.331589,248.599564 
	C170.940674,272.441467 186.455994,290.396118 204.112549,307.010803 
	C209.300568,311.933990 214.025558,316.935455 219.398392,321.101410 
	C247.016937,342.516296 274.793304,363.727753 302.538025,384.979645 
	C306.744019,388.201385 311.073120,391.262451 316.317627,395.111481 
	C276.723541,395.111481 238.572388,395.169067 200.422379,394.984375 
	C197.827881,394.971832 194.932739,393.593811 192.703384,392.077545 
	C179.649597,383.198975 166.752457,374.090057 153.679016,364.813904 
	C150.685165,362.079468 147.814789,359.590027 144.944412,357.100555 
	C144.944412,357.100555 144.981552,357.025726 144.885742,356.743225 
	C144.159744,356.042114 143.529526,355.623535 142.899323,355.204926 
	C142.899323,355.204926 142.915375,355.089508 142.795944,354.813049 
	C142.097961,354.058685 141.519409,353.580780 140.940857,353.102905 
	C140.940842,353.102905 140.966949,353.023224 140.864685,352.803711 
	C140.583023,352.276123 140.315048,352.122589 139.958511,352.123657 
	C139.444138,351.524048 138.929749,350.924408 138.094910,349.946411 
	C137.587234,349.274811 137.320679,349.109558 136.974762,349.072266 
z"/>
<path fill="#141515" opacity="1.000000" stroke="none" 
	d="
M153.802490,365.058868 
	C166.752457,374.090057 179.649597,383.198975 192.703384,392.077545 
	C194.932739,393.593811 197.827881,394.971832 200.422379,394.984375 
	C238.572388,395.169067 276.723541,395.111481 316.317627,395.111481 
	C311.073120,391.262451 306.744019,388.201385 302.538025,384.979645 
	C274.793304,363.727753 247.016937,342.516296 219.398392,321.101410 
	C214.025558,316.935455 209.300568,311.933990 204.291290,306.750305 
	C224.982727,282.405884 245.659622,258.628998 266.407745,234.770248 
	C287.496033,259.037048 308.316742,282.995972 329.137451,306.954865 
	C335.570892,314.733368 341.893890,322.606598 348.463806,330.268036 
	C358.196167,341.617310 368.103760,352.816345 378.263214,364.065399 
	C388.721222,375.950653 398.852783,387.849792 409.031250,400.597321 
	C409.104126,402.167023 409.130127,402.888306 409.156158,403.609619 
	C388.857269,403.690521 368.558411,403.772491 348.259521,403.851685 
	C342.100647,403.875702 335.941742,403.892090 329.281799,403.464905 
	C326.523651,403.246796 324.266602,403.475769 322.009552,403.704773 
	C315.642578,403.770782 309.275604,403.836761 302.395630,403.539032 
	C301.258331,403.351624 300.634003,403.527954 300.009705,403.704254 
	C290.309479,403.770416 280.609283,403.836578 270.395844,403.539062 
	C269.258331,403.351624 268.634003,403.527954 268.009705,403.704254 
	C245.974701,403.770447 223.939713,403.836639 201.379456,403.496521 
	C199.906128,403.272919 198.958069,403.455627 198.009995,403.638367 
	C175.592773,403.701782 153.175552,403.765198 130.371796,403.245758 
	C129.376648,400.334900 131.696060,396.999847 127.644165,395.856171 
	C135.347107,386.751831 143.050049,377.647522 151.170837,368.084839 
	C152.326614,366.770599 153.064545,365.914734 153.802490,365.058868 
z"/>
<path fill="#171717" opacity="1.000000" stroke="none" 
	d="
M164.455566,434.480255 
	C186.459457,430.743164 207.715714,431.357147 227.767792,441.085327 
	C233.307404,443.772858 238.661484,447.744141 242.758347,452.326508 
	C252.968430,463.746521 251.361404,478.621216 239.555344,488.401154 
	C236.770325,490.708221 233.631027,492.587646 229.307281,495.603760 
	C237.179047,496.617767 243.794281,497.469910 250.644501,498.352325 
	C250.644501,499.916107 250.644501,501.691406 250.644501,503.751770 
	C241.330521,504.804932 232.468719,503.182800 223.643250,500.572693 
	C221.305939,499.881470 218.439590,499.835327 216.094559,500.490112 
	C191.678070,507.307861 167.757294,506.628510 144.565323,495.850067 
	C140.407028,493.917480 136.456085,491.165924 133.027817,488.100830 
	C119.276688,475.806427 119.878998,459.420502 134.328995,447.943878 
	C143.084976,440.989655 153.150360,436.840637 164.455566,434.480255 
M152.454880,480.909912 
	C149.260727,481.541962 146.066574,482.174011 142.545532,482.870728 
	C157.499771,499.301605 194.092255,501.331848 209.067291,494.321564 
	C208.229889,493.813690 207.533539,493.410522 206.856110,492.977692 
	C191.029449,482.865662 173.733948,478.695007 154.712799,479.644043 
	C154.181564,479.955963 153.650330,480.267883 152.454880,480.909912 
M169.930099,473.699738 
	C185.632446,474.010132 199.844238,479.259918 213.363190,486.806091 
	C221.012024,491.075562 221.019257,491.083405 227.846313,485.170654 
	C228.976395,484.191925 230.089783,483.173920 231.082367,482.059570 
	C239.146530,473.006073 238.902405,462.543732 230.245117,454.112061 
	C227.889374,451.817719 225.227524,449.664368 222.348190,448.108948 
	C203.012329,437.663452 182.777435,436.528992 161.979645,442.905914 
	C153.915726,445.378448 146.738617,449.389069 140.950714,455.734680 
	C135.328842,461.898224 134.268417,471.889709 138.473770,476.372040 
	C142.100006,475.871063 145.533936,475.396667 149.407990,475.497955 
	C150.935776,475.038574 152.463562,474.579163 154.818985,473.889038 
	C156.528366,473.884155 158.237732,473.879272 160.366898,474.467957 
	C163.380280,476.107361 166.306198,476.431152 169.930099,473.699738 
z"/>
<path fill="#181818" opacity="1.000000" stroke="none" 
	d="
M359.955750,488.916870 
	C365.439728,484.027863 371.664581,487.018768 377.326233,485.961975 
	C377.570038,486.395538 377.813873,486.829132 378.057709,487.262695 
	C373.813141,490.164856 369.817261,493.551727 365.278564,495.880646 
	C350.054260,503.692688 333.617493,505.567993 316.783478,504.589539 
	C304.430084,503.871582 292.204834,501.897461 281.276154,495.825562 
	C275.719788,492.738464 270.315002,488.729126 266.099213,484.012665 
	C257.116058,473.962830 257.954742,460.858948 267.550079,451.318146 
	C278.391632,440.538208 292.052246,435.664459 306.838104,433.589447 
	C325.078003,431.029694 343.017334,432.206329 360.319855,438.977692 
	C367.270355,441.697754 373.566406,445.530029 379.446442,451.815674 
	C371.444702,451.707672 365.129456,451.603027 358.243042,447.886047 
	C335.705231,435.721069 312.248535,436.138794 289.261932,447.119629 
	C280.653198,451.232086 273.347565,457.515808 273.154236,468.166107 
	C272.957306,479.015991 279.958649,485.690155 288.805756,490.025787 
	C312.451294,501.613586 336.172821,501.270416 359.955750,488.916870 
z"/>
<path fill="#141414" opacity="1.000000" stroke="none" 
	d="
M397.093597,501.009338 
	C397.093597,478.753326 397.093597,456.497314 397.093597,433.845428 
	C400.530884,433.845428 403.810272,433.845428 407.639587,434.146973 
	C408.361084,434.716248 408.599457,434.894867 408.904663,434.984314 
	C408.969452,456.019104 409.034271,477.053894 408.688782,498.592041 
	C408.185822,500.395630 408.093109,501.695862 408.000366,502.996094 
	C405.292694,503.067474 402.584991,503.138855 399.403198,502.786987 
	C398.317291,501.912262 397.705444,501.460785 397.093597,501.009338 
z"/>
<path fill="#1B1B1B" opacity="1.000000" stroke="none" 
	d="
M397.994385,361.348877 
	C402.672638,352.620514 409.609222,348.767029 417.521454,350.169525 
	C425.084839,351.510162 431.081818,357.788818 432.015533,365.344269 
	C432.902252,372.519501 429.401062,379.575043 423.229370,383.049896 
	C417.043610,386.532684 409.250549,385.897247 403.553253,381.445496 
	C397.622284,376.811127 395.562256,369.639191 397.994385,361.348877 
M416.154724,382.913055 
	C428.951477,380.273071 434.198578,367.018524 426.149017,357.666809 
	C421.576111,352.354156 414.249207,350.771423 408.062469,353.759766 
	C401.583893,356.889130 397.910645,364.044067 399.399628,370.633728 
	C401.109314,378.200134 406.859741,382.649567 416.154724,382.913055 
z"/>
<path fill="#0C0C0C" opacity="1.000000" stroke="none" 
	d="
M127.362656,395.999695 
	C131.696060,396.999847 129.376648,400.334900 129.971008,403.142883 
	C127.923309,403.686707 125.889870,403.750519 123.461288,403.427704 
	C123.049286,402.370453 123.032425,401.699890 123.015556,401.029297 
	C124.370743,399.400604 125.725937,397.771912 127.362656,395.999695 
z"/>
<path fill="#D5EFF3" opacity="1.000000" stroke="none" 
	d="
M153.679016,364.813904 
	C153.064545,365.914734 152.326614,366.770599 151.283234,367.764771 
	C148.973160,364.563354 146.968567,361.223633 144.954193,357.492249 
	C147.814789,359.590027 150.685165,362.079468 153.679016,364.813904 
z"/>
<path fill="#0C0C0C" opacity="1.000000" stroke="none" 
	d="
M322.438904,403.793762 
	C324.266602,403.475769 326.523651,403.246796 328.885193,403.365051 
	C326.949219,403.769165 324.908722,403.825989 322.438904,403.793762 
z"/>
<path fill="#010101" opacity="1.000000" stroke="none" 
	d="
M408.385040,502.927948 
	C408.093109,501.695862 408.185822,500.395630 408.592010,499.052521 
	C408.860229,500.293030 408.814972,501.576416 408.385040,502.927948 
z"/>
<path fill="#0C0C0C" opacity="1.000000" stroke="none" 
	d="
M198.375549,403.731689 
	C198.958069,403.455627 199.906128,403.272919 200.921814,403.386261 
	C200.239990,403.729889 199.490555,403.777466 198.375549,403.731689 
z"/>
<path fill="#424242" opacity="1.000000" stroke="none" 
	d="
M122.703522,401.139648 
	C123.032425,401.699890 123.049286,402.370453 123.072174,403.377319 
	C122.497398,403.678406 121.916611,403.643219 121.335815,403.608002 
	C121.687698,402.821991 122.039589,402.036011 122.703522,401.139648 
z"/>
<path fill="#010101" opacity="1.000000" stroke="none" 
	d="
M397.024292,501.390076 
	C397.705444,501.460785 398.317291,501.912262 398.963989,502.676971 
	C398.317566,502.583740 397.636292,502.177307 397.024292,501.390076 
z"/>
<path fill="#0C0C0C" opacity="1.000000" stroke="none" 
	d="
M300.335754,403.792542 
	C300.634003,403.527954 301.258331,403.351624 301.936005,403.439789 
	C301.546844,403.763123 301.104309,403.821960 300.335754,403.792542 
z"/>
<path fill="#0C0C0C" opacity="1.000000" stroke="none" 
	d="
M268.335754,403.792542 
	C268.634003,403.527954 269.258331,403.351624 269.936005,403.439819 
	C269.546844,403.763123 269.104309,403.821991 268.335754,403.792542 
z"/>
<path fill="#D5EFF3" opacity="1.000000" stroke="none" 
	d="
M142.952454,355.505310 
	C143.529526,355.623535 144.159744,356.042114 144.845581,356.754700 
	C144.269348,356.634399 143.637466,356.220062 142.952454,355.505310 
z"/>
<path fill="#090909" opacity="1.000000" stroke="none" 
	d="
M409.583374,403.688354 
	C409.130127,402.888306 409.104126,402.167023 409.108490,400.904419 
	C409.429474,401.497772 409.720062,402.632446 409.583374,403.688354 
z"/>
<path fill="#D5EFF3" opacity="1.000000" stroke="none" 
	d="
M140.979401,353.406647 
	C141.519409,353.580780 142.097961,354.058685 142.738190,354.820679 
	C142.205887,354.639954 141.611923,354.175171 140.979401,353.406647 
z"/>
<path fill="#010101" opacity="1.000000" stroke="none" 
	d="
M408.939819,434.691040 
	C408.599457,434.894867 408.361084,434.716248 408.098083,434.240295 
	C408.329437,434.153992 408.652222,434.275879 408.939819,434.691040 
z"/>
<path fill="#D5EFF3" opacity="1.000000" stroke="none" 
	d="
M140.047089,352.336243 
	C140.315048,352.122589 140.583023,352.276123 140.824982,352.817169 
	C140.571121,352.981659 140.320511,352.814545 140.047089,352.336243 
z"/>
<path fill="#D5EFF3" opacity="1.000000" stroke="none" 
	d="
M137.056396,349.292450 
	C137.320679,349.109558 137.587234,349.274811 137.833710,349.802582 
	C137.568268,349.967468 137.316605,349.792633 137.056396,349.292450 
z"/>
<path fill="#FDFEFE" opacity="1.000000" stroke="none" 
	d="
M329.428467,306.811157 
	C308.316742,282.995972 287.496033,259.037048 266.407745,234.770248 
	C245.659622,258.628998 224.982727,282.405884 204.127090,306.443207 
	C186.455994,290.396118 170.940674,272.441467 165.331589,248.599564 
	C158.547806,219.764465 165.053970,193.073242 182.740799,169.459015 
	C199.197525,147.487122 221.212143,134.111450 249.185333,129.369019 
	C260.280182,129.157028 270.619263,129.163361 280.958344,129.169708 
	C295.495056,132.262619 309.457123,136.764801 321.965607,145.136459 
	C362.492432,172.260208 385.931763,230.971420 350.190002,282.957642 
	C344.310211,291.509735 336.589417,298.796112 329.428467,306.811157 
z"/>
<path fill="#17A0C8" opacity="1.000000" stroke="none" 
	d="
M280.748169,128.847290 
	C270.619263,129.163361 260.280182,129.157028 249.481232,129.124268 
	C252.919037,128.112839 256.816711,127.127823 260.301025,126.247269 
	C260.062775,126.174370 259.123718,125.887016 257.161469,125.286591 
	C262.739807,125.286591 267.303680,125.286591 271.867584,125.286591 
	C271.895630,125.409645 271.923676,125.532700 271.951752,125.655762 
	C270.975891,125.882645 270.000031,126.109535 269.010193,126.339676 
	C272.951447,127.086777 276.744690,127.805824 280.748169,128.847290 
z"/>
<path fill="#FBFBFB" opacity="1.000000" stroke="none" 
	d="
M148.967850,474.922241 
	C145.533936,475.396667 142.100006,475.871063 138.473770,476.372040 
	C134.268417,471.889709 135.328842,461.898224 140.950714,455.734680 
	C146.738617,449.389069 153.915726,445.378448 161.979645,442.905914 
	C182.777435,436.528992 203.012329,437.663452 222.348190,448.108948 
	C225.227524,449.664368 227.889374,451.817719 230.245117,454.112061 
	C238.902405,462.543732 239.146530,473.006073 231.082367,482.059570 
	C230.089783,483.173920 228.976395,484.191925 227.846313,485.170654 
	C221.019257,491.083405 221.012024,491.075562 213.363190,486.806091 
	C199.844238,479.259918 185.632446,474.010132 169.127945,473.665771 
	C165.532898,473.712677 162.740005,473.793518 159.947113,473.874390 
	C158.237732,473.879272 156.528366,473.884155 154.036926,473.954193 
	C151.825851,474.320282 150.396851,474.621246 148.967850,474.922241 
z"/>
<path fill="#F9F9F9" opacity="1.000000" stroke="none" 
	d="
M155.043777,480.160126 
	C173.733948,478.695007 191.029449,482.865662 206.856110,492.977692 
	C207.533539,493.410522 208.229889,493.813690 209.067291,494.321564 
	C194.092255,501.331848 157.499771,499.301605 142.545532,482.870728 
	C146.066574,482.174011 149.260727,481.541962 153.125061,480.769623 
	C154.211411,480.472931 154.627594,480.316528 155.043777,480.160126 
z"/>
<path fill="#090909" opacity="1.000000" stroke="none" 
	d="
M160.157013,474.171173 
	C162.740005,473.793518 165.532898,473.712677 168.683777,473.761566 
	C166.306198,476.431152 163.380280,476.107361 160.157013,474.171173 
z"/>
<path fill="#090909" opacity="1.000000" stroke="none" 
	d="
M149.187927,475.210083 
	C150.396851,474.621246 151.825851,474.320282 153.623108,474.069580 
	C152.463562,474.579163 150.935776,475.038574 149.187927,475.210083 
z"/>
<path fill="#040404" opacity="1.000000" stroke="none" 
	d="
M154.878296,479.902100 
	C154.627594,480.316528 154.211411,480.472931 153.457169,480.604553 
	C153.650330,480.267883 154.181564,479.955963 154.878296,479.902100 
z"/>
<path fill="#F3F3F3" opacity="1.000000" stroke="none" 
	d="
M415.739624,382.934387 
	C406.859741,382.649567 401.109314,378.200134 399.399628,370.633728 
	C397.910645,364.044067 401.583893,356.889130 408.062469,353.759766 
	C414.249207,350.771423 421.576111,352.354156 426.149017,357.666809 
	C434.198578,367.018524 428.951477,380.273071 415.739624,382.934387 
M418.409454,373.100708 
	C419.756470,373.882141 421.103485,374.663574 423.029663,375.781006 
	C423.095795,370.531769 420.618713,366.708221 423.040161,362.667328 
	C423.358154,362.136688 420.663483,358.603851 419.072449,358.359314 
	C414.939148,357.723969 410.643372,358.145874 406.418335,358.145874 
	C406.418335,364.035065 406.418335,369.314514 406.418335,374.909637 
	C407.848145,374.844177 409.051575,374.789093 410.291931,374.732300 
	C410.462402,372.626068 410.603760,370.879791 410.787140,368.613983 
	C413.663361,369.892761 417.892395,366.592743 418.409454,373.100708 
z"/>
<path fill="#131313" opacity="1.000000" stroke="none" 
	d="
M418.385010,372.660370 
	C417.892395,366.592743 413.663361,369.892761 410.787140,368.613983 
	C410.603760,370.879791 410.462402,372.626068 410.291931,374.732300 
	C409.051575,374.789093 407.848145,374.844177 406.418335,374.909637 
	C406.418335,369.314514 406.418335,364.035065 406.418335,358.145874 
	C410.643372,358.145874 414.939148,357.723969 419.072449,358.359314 
	C420.663483,358.603851 423.358154,362.136688 423.040161,362.667328 
	C420.618713,366.708221 423.095795,370.531769 423.029663,375.781006 
	C421.103485,374.663574 419.756470,373.882141 418.385010,372.660370 
M410.383301,362.892609 
	C412.099701,366.075287 415.791229,366.222809 420.005798,362.131012 
	C416.166901,362.131012 413.412048,362.131012 410.383301,362.892609 
z"/>
<path fill="#D3D3D3" opacity="1.000000" stroke="none" 
	d="
M410.520264,362.511810 
	C413.412048,362.131012 416.166901,362.131012 420.005798,362.131012 
	C415.791229,366.222809 412.099701,366.075287 410.520264,362.511810 
z"/>
</svg>